<?xml version="1.0"?>
<svg xmlns="http://www.w3.org/2000/svg" xmlns:xlink="http://www.w3.org/1999/xlink" width="220px" height="220px" viewBox="0 0 220 220">
  <svg xmlns="http://www.w3.org/2000/svg" xmlns:xlink="http://www.w3.org/1999/xlink" xmlns:a="http://ns.adobe.com/AdobeSVGViewerExtensions/3.0/" version="1.1" x="0px" y="0px" width="220px" height="220px" viewBox="-46.049 -22.715 220 220" enable-background="new -46.049 -22.715 220 220" xml:space="preserve">
<g fill="#FFFFFF">
<path fill-rule="evenodd" clip-rule="evenodd" d="M7.26,0h113.384c4.009,0,7.259,4.182,7.259,9.341v155.89  c0,5.158-3.25,9.34-7.259,9.34H7.26c-4.01,0-7.26-4.182-7.26-9.34V9.341C0,4.182,3.25,0,7.26,0z"/>
</g>
</svg>
  <svg xmlns="http://www.w3.org/2000/svg" xmlns:xlink="http://www.w3.org/1999/xlink" xmlns:a="http://ns.adobe.com/AdobeSVGViewerExtensions/3.0/" version="1.1" x="0px" y="0px" width="220px" height="220px" viewBox="-36.066 -12.786 220 220" enable-background="new -36.066 -12.786 220 220" xml:space="preserve">
<g fill="#3A919E">
<path d="M130.625,10.029H52.921H33.496h-9.713c-3.032,0.037-7.218-0.141-8.169,0.307  c-3.396,1.182-6.018,5.137-5.53,10.801v19.426v116.557c0.045,6.286-0.102,13.372,0.102,19.003c0.241,4.566,3.704,8.469,7.139,8.276  v0.004l0,0v3.542c-5.826,0.108-10.379-5.696-10.673-11.526c-0.229-6.222-0.063-12.88-0.114-19.299V40.564V21.138  c-0.57-6.158,2.51-12.413,8.023-14.188C26.53,6.017,40.19,6.692,52.921,6.483h77.704V10.029z"/>
<path d="M130.625,0.029v3.544H52.921C39.805,3.84,27.392,2.976,13.697,4.171C6.446,6.433,2.99,14.574,3.627,21.138  v19.426v116.557c0.056,6.527-0.124,12.834,0.125,19.542c0.337,6.867,5.785,14.232,13.573,14.193v3.544  C7.147,194.355,0.61,185.088,0.22,176.958c-0.273-7.299-0.076-13.179-0.137-19.838V40.564V21.138  C-0.635,14.081,3.278,3.642,12.646,0.787c5.307-1.292,7.733-0.554,11.136-0.757H130.625z"/>
<path d="M17.243,184.4h106.844c3.031-0.036,7.218,0.141,8.169-0.308c3.396-1.181,6.019-5.137,5.53-10.801v-19.426  V37.309c-0.046-6.287,0.102-13.373-0.102-19.003c-0.241-4.566-3.704-8.469-7.14-8.276v-0.004l0,0V6.483  c5.826-0.108,10.379,5.696,10.673,11.526c0.229,6.223,0.063,12.881,0.114,19.299v116.557v19.426  c0.57,6.158-2.51,12.412-8.023,14.188c-11.969,0.933-116.065,0.467-116.065,0.467V184.4z"/>
<path d="M17.243,194.4v-3.544h77.704c13.117-0.267,37.345,0.303,39.225-0.598  c7.251-2.263,10.707-10.403,10.07-16.967v-19.426V37.309c-0.056-6.527,0.124-12.834-0.124-19.542  c-0.338-6.867-5.785-14.232-13.573-14.193V0.029c10.177,0.045,16.714,9.312,17.104,17.441c0.273,7.3,0.076,13.179,0.137,19.838  v116.557v19.426c0.718,7.057-3.195,17.495-12.563,20.351c-5.308,1.292-7.733,0.554-11.137,0.758H17.243z"/>
</g>
</svg>
  <svg xmlns="http://www.w3.org/2000/svg" xmlns:xlink="http://www.w3.org/1999/xlink" xmlns:a="http://ns.adobe.com/AdobeSVGViewerExtensions/3.0/" version="1.1" x="0px" y="0px" width="220px" height="220px" viewBox="-71.389 -59.668 220 220" enable-background="new -71.389 -59.668 220 220" xml:space="preserve">
	 
	<g fill="#4BBBCC">
		<path d="M38.6,48.301c10.548,0,19.1-10.813,19.1-24.146C57.7,10.816,49.148,0,38.6,0   C28.054,0,19.503,10.816,19.503,24.155C19.503,37.488,28.054,48.301,38.6,48.301z"/>
		<path d="M53.203,55.782c-0.904,4.523-11.237,36.503-11.237,36.503l-1.146-22.078v-8.191l2.091-6.228H34.17   l2.137,6.266v8.153l-1.25,22.078c0,0-10.155-31.979-11.058-36.503C4.345,55.194,0.052,68.109,0.011,74.109   c-0.024,3.534,0,20.554,0,20.554h37.72h1.738h37.72c0,0,0.073-16.371,0-20.554C77.115,69.925,72.852,55.194,53.203,55.782z"/>
	</g>
</svg>
  <svg xmlns="http://www.w3.org/2000/svg" xmlns:xlink="http://www.w3.org/1999/xlink" xmlns:a="http://ns.adobe.com/AdobeSVGViewerExtensions/3.0/" version="1.1" x="0px" y="0px" width="220px" height="220px" viewBox="-15.221 -169.576 220 220" enable-background="new -15.221 -169.576 220 220" xml:space="preserve">

	<g fill="#F0DA1A">
		<path d="M189.558,0H0l8.081,15.555L0,31.85h189.558l-8.539-16.295L189.558,0z"/>
	</g>
</svg>
  <svg xmlns="http://www.w3.org/2000/svg" xmlns:xlink="http://www.w3.org/1999/xlink" xmlns:a="http://ns.adobe.com/AdobeSVGViewerExtensions/3.0/" version="1.1" x="0px" y="0px" width="220px" height="220px" viewBox="-15.221 -169.576 220 220" enable-background="new -15.221 -169.576 220 220" xml:space="preserve">

	<path fill-opacity="0.15" d="M186.178,2l-6.912,12.592l-0.517,0.94l0.498,0.951l7.005,13.366H3.224l6.649-13.406l0.451-0.91l-0.468-0.9  L3.293,2H186.178 M189.558,0H0l8.081,15.555L0,31.85h189.558l-8.539-16.295L189.558,0L189.558,0z"/>
</svg>
  <svg xmlns="http://www.w3.org/2000/svg" width="220px" height="220px" viewBox="-110 -191 220 220" version="1.1">
	<text text-anchor="middle" fill="#968910" style="font-size:15px; font-family:Arial, Helvetica, sans-serif;">LEADERSHIP</text>
</svg>
</svg>
