<?xml version="1.0"?>
<svg xmlns="http://www.w3.org/2000/svg" xmlns:xlink="http://www.w3.org/1999/xlink" width="220px" height="220px" viewBox="0 0 220 220">
  <svg xmlns="http://www.w3.org/2000/svg" xmlns:xlink="http://www.w3.org/1999/xlink" xmlns:a="http://ns.adobe.com/AdobeSVGViewerExtensions/3.0/" version="1.1" x="0px" y="0px" width="220px" height="220px" viewBox="-30.486 -14.694 220 220" enable-background="new -30.486 -14.694 220 220" xml:space="preserve">
<g fill="#76C9C6">
<path d="M158.61,21.878c0,0-22.594-19.659-79.082-21.878l0,0c-0.006,0-0.012,0-0.012,0c-0.007,0-0.01,0-0.01,0  h-0.002C22.84,3.005,0.415,21.878,0.415,21.878S0,55.544,0,115.296c5.005,38.849,78.418,74.783,79.504,75.309l0.013,0.007  l0.011-0.007c1.083-0.525,74.494-36.46,79.5-75.309C159.028,55.544,158.61,21.878,158.61,21.878z"/>
</g>
</svg>
  <svg xmlns="http://www.w3.org/2000/svg" xmlns:xlink="http://www.w3.org/1999/xlink" xmlns:a="http://ns.adobe.com/AdobeSVGViewerExtensions/3.0/" version="1.1" x="0px" y="0px" width="220px" height="220px" viewBox="-20.486 -4.694 220 220" enable-background="new -20.486 -4.694 220 220" xml:space="preserve">
<g fill="#3A919E">
	<path d="M89.528,10c56.488,2.219,79.082,21.878,79.082,21.878s0.418,33.666,0.418,93.418   c-5.006,38.849-78.416,74.783-79.5,75.309l-0.011,0.007l-0.013-0.007c-1.086-0.525-74.499-36.46-79.504-75.309   c0-59.752,0.415-93.418,0.415-93.418S32.84,13.005,89.504,10h0.002c0,0,0.003,0,0.01,0C89.517,10,89.522,10,89.528,10 M89.725,0   h-0.196h-0.012h-0.265l-0.277,0.014C29.647,3.161,4.996,23.368,3.976,24.227l-3.504,2.949l-0.056,4.579   C0.411,32.092,0,66.167,0,125.296v0.642l0.082,0.637c2.444,18.971,17.671,38.766,45.257,58.834   c18.886,13.739,37.373,22.997,39.59,24.09l4.88,2.626l4.521-2.737c3.066-1.516,20.822-10.493,39.359-23.979   c27.585-20.068,42.812-39.863,45.256-58.834l0.082-0.637v-0.642c0-59.13-0.414-93.205-0.419-93.542l-0.056-4.479l-3.379-2.94   c-1.031-0.897-25.932-21.996-85.253-24.326L89.725,0L89.725,0z"/>
</g>
</svg>
  <svg xmlns="http://www.w3.org/2000/svg" xmlns:xlink="http://www.w3.org/1999/xlink" xmlns:a="http://ns.adobe.com/AdobeSVGViewerExtensions/3.0/" version="1.1" x="0px" y="0px" width="220px" height="220px" viewBox="-62.341 -58.707 220 220" enable-background="new -62.341 -58.707 220 220" xml:space="preserve">
	 
	<g fill="#F0DA1A">
		<path d="M66.854,44.876C91.84,38.313,95.466,18.602,95.314,9.507c-0.003-3.056-0.349-5.007-0.363-5.101L94.663,2.78   H74.979V0H48.172h-1.03H20.34v2.78H0.657L0.368,4.406C0.352,4.5,0.011,6.451,0.005,9.507c-0.161,9.095,3.475,28.806,28.464,35.369   c3.475,3.664,8.421,6.961,15.521,8.865c0,4.341,0,12.657,0,28.774c-17.875,0.416-22.452,9.432-23.411,12.069h25.58h3h25.579   c-0.954-2.638-5.537-11.653-23.406-12.069c0-16.117,0-24.434,0-28.774C58.429,51.837,63.377,48.54,66.854,44.876z M74.979,26.107   V6.727h16.28c0.06,0.713,0.115,1.65,0.115,2.78c-0.146,7.741-2.188,22.743-20.427,29.861C74.877,32.535,74.979,26.107,74.979,26.107   z M3.945,9.507c0-1.129,0.052-2.066,0.115-2.78h16.28v19.38c0,0,0.105,6.428,4.027,13.261C6.135,32.25,4.094,17.248,3.945,9.507z    M47.657,35.369l-11.853,6.229L38.069,28.4l-9.587-9.349l13.252-1.921l5.923-12.006l5.928,12.006l13.256,1.921L57.25,28.4   l2.262,13.199L47.657,35.369z"/>
	</g>
</svg>
  <svg xmlns="http://www.w3.org/2000/svg" xmlns:xlink="http://www.w3.org/1999/xlink" xmlns:a="http://ns.adobe.com/AdobeSVGViewerExtensions/3.0/" version="1.1" x="0px" y="0px" width="220px" height="220px" viewBox="-15.221 -169.576 220 220" enable-background="new -15.221 -169.576 220 220" xml:space="preserve">

	<g fill="#F0DA1A">
		<path d="M189.558,0H0l8.081,15.555L0,31.85h189.558l-8.539-16.295L189.558,0z"/>
	</g>
</svg>
  <svg xmlns="http://www.w3.org/2000/svg" xmlns:xlink="http://www.w3.org/1999/xlink" xmlns:a="http://ns.adobe.com/AdobeSVGViewerExtensions/3.0/" version="1.1" x="0px" y="0px" width="220px" height="220px" viewBox="-15.221 -169.576 220 220" enable-background="new -15.221 -169.576 220 220" xml:space="preserve">

	<path fill-opacity="0.15" d="M186.178,2l-6.912,12.592l-0.517,0.94l0.498,0.951l7.005,13.366H3.224l6.649-13.406l0.451-0.91l-0.468-0.9  L3.293,2H186.178 M189.558,0H0l8.081,15.555L0,31.85h189.558l-8.539-16.295L189.558,0L189.558,0z"/>
</svg>
  <svg xmlns="http://www.w3.org/2000/svg" width="220px" height="220px" viewBox="-110 -191 220 220" version="1.1">
	<text text-anchor="middle" fill="#3A919E" style="font-size:15px; font-family:Arial, Helvetica, sans-serif;">BEST STUDENT</text>
</svg>
</svg>
